<svg xmlns="http://www.w3.org/2000/svg" viewBox="0 0 400 640" fill="none">
  <g stroke="#141018" stroke-width="2.4" stroke-linejoin="round">
    <path fill="#2a2435" fill-opacity="0.92" stroke-width="2.6" d="M154 52c16-8 76-8 92 0 12 6 18 16 20 28l6 44c2 12-4 24-16 30-10 4-80 4-90 0-12-6-18-18-16-32l8-46c2-12 10-22 22-28z"/>
    <path fill="none" stroke="#f0a500" stroke-opacity="0.5" d="M168 88h64"/>
    <path fill="#1a1020" d="M182 102c2 0 4 2 5 5 1 4-2 7-5 7s-6-3-5-7c1-3 3-5 5-5z"/>
    <path fill="#1a1020" d="M214 102c2 0 4 2 5 5 1 4-2 7-5 7s-6-3-5-7c1-3 3-5 5-5z"/>
  </g>
</svg>
