<svg xmlns="http://www.w3.org/2000/svg" viewBox="0 0 400 640" fill="none">
  <g stroke="#141018" stroke-width="2.3" stroke-linecap="round" stroke-linejoin="round">
    <path fill="none" d="M168 78q14 4 28 0" opacity="0.5"/>
    <path d="M170 62c8-4 18-2 24 4"/>
    <path d="M206 62c8-6 18-8 26-2"/>
    <path fill="#1a1020" d="M176 80c3 0 5 3 6 7 1 5-2 10-7 9-4-1-7-6-5-10 1-4 4-6 6-6z"/>
    <path fill="#1a1020" d="M218 80c3 0 5 3 6 7 1 5-2 10-7 9-4-1-7-6-5-10 1-4 4-6 6-6z"/>
    <path fill="none" d="M186 104q14 5 28-2"/>
  </g>
</svg>
