<svg xmlns="http://www.w3.org/2000/svg" viewBox="0 0 400 640" fill="none">
  <g stroke="#141018" stroke-width="2.4" stroke-linecap="round" stroke-linejoin="round">
    <path d="M158 58c14 6 24 18 28 34" opacity="0.85"/>
    <path d="M170 66c8-4 18-4 24 2"/>
    <path d="M208 64c6-6 16-6 24-2"/>
    <path fill="#1a1020" d="M176 80c3 0 6 3 7 7 1 5-3 10-8 9-4-1-7-6-6-10 1-4 4-6 7-6z"/>
    <path fill="#1a1020" d="M218 80c3 0 6 3 7 7 1 5-3 10-8 9-4-1-7-6-6-10 1-4 4-6 7-6z"/>
    <path fill="none" d="M188 106q12 5 24 0"/>
  </g>
</svg>
