<svg xmlns="http://www.w3.org/2000/svg" viewBox="0 0 400 640" fill="none">
  <g stroke="#0f0a08" stroke-width="2" stroke-linecap="round">
    <path fill="#1a100c" d="M158 38c14-10 70-10 84 0 12 10 14 26 8 40l-6 14-8-6c-6 8-12 14-20 18l-10-28c-6 4-14 6-22 6s-16-2-22-6l-10 28c-8-4-14-10-20-18l-8 6-6-14c-8-18-2-36 12-46z"/>
    <path d="M172 48c4 24 6 52 4 78"/>
    <path d="M188 46c2 28 2 56 0 82"/>
    <path d="M200 44v86"/>
    <path d="M212 46c-2 28-2 56 0 82"/>
    <path d="M228 48c-4 24-6 52-4 78"/>
  </g>
</svg>
