<svg xmlns="http://www.w3.org/2000/svg" viewBox="0 0 400 640" fill="none">
  <g stroke="#0f0a08" stroke-width="2.2" stroke-linejoin="round">
    <path fill="#2a1810" d="M152 44c14-12 78-12 96 0 12 10 14 28 6 44l-2 8h-12c-8 28-6 58 4 88 2 6-2 14-10 14h-4c-6 0-10-6-8-12 8-36 10-74 4-110-10-6-22-8-34-6-14 2-26 10-34 22-10 46-8 92 8 134 2 6-2 12-10 12h-2c-8 0-12-8-10-16 12-40 12-82 2-122l-12-4-2-8c-8-16-4-34 8-44z"/>
    <path fill="#1a0f0c" d="M210 120c8 22 18 44 32 62l-6 8c-16-18-28-40-34-64l8-6z"/>
  </g>
</svg>
