<svg xmlns="http://www.w3.org/2000/svg" viewBox="0 0 400 640" fill="none">
  <g stroke="#0c0a10" stroke-width="2.2" stroke-linejoin="round" stroke-linecap="round">
    <path fill="#e8ecf2" d="M218 498c18-4 32 8 36 28l8 42c2 12-4 24-16 30l-6 2c-12 4-26-2-32-14l-12-34-6-30 4-20 8-8 16-4z"/>
    <path fill="#5c6b7e" d="M224 522l26 8c10 4 16 14 14 26l-2 10c-2 10-12 18-22 18h-26c-14 0-26-12-24-28l4-20c2-10 10-16 20-16l10 2z"/>
    <path fill="#e8ecf2" d="M142 518c-16-6-28 4-32 20l-6 34c-4 14 4 28 18 32l8 2c12 2 24-6 28-18l8-38 2-28-8-16-12-6-6 18z"/>
    <path fill="#5c6b7e" d="M120 548l-4 18c-2 12 6 24 18 26l24 4c10 2 20-4 24-14l6-16c4-10 0-22-10-28l-22-10c-10-4-22 0-28 10l-8 16z"/>
  </g>
</svg>
